<svg width="263" height="86" viewBox="0 0 263 86" fill="none" xmlns="http://www.w3.org/2000/svg">
<path d="M34.66 37.38C34.2333 37.38 33.8667 37.2333 33.56 36.94C33.2667 36.6333 33.12 36.2667 33.12 35.84C33.12 35.5067 33.22 35.18 33.42 34.86C33.62 34.54 33.88 34.2533 34.2 34C34.52 33.7467 34.88 33.5333 35.28 33.36C35.68 33.1867 36.08 33.08 36.48 33.04C36.12 33.0933 35.84 33.2 35.64 33.36C35.4533 33.52 35.36 33.7067 35.36 33.92C35.36 34.0667 35.4 34.2133 35.48 34.36C35.56 34.4933 35.66 34.6333 35.78 34.78C36.0733 35.0467 36.22 35.4 36.22 35.84C36.22 36.2667 36.0667 36.6333 35.76 36.94C35.4533 37.2333 35.0867 37.38 34.66 37.38ZM40.7 41.5C40.7 41.74 40.78 41.9733 40.94 42.2C41.1 42.4267 41.2933 42.56 41.52 42.6L38.08 43.1H38.04C37.9333 43.1 37.8467 43.0667 37.78 43C37.7133 42.9333 37.68 42.8467 37.68 42.74V42.56V39.6V38.4V37.06V36.96C37.52 37.04 37.32 37.14 37.08 37.26C36.8533 37.38 36.6267 37.54 36.4 37.74C36.1867 37.94 35.9933 38.1933 35.82 38.5C35.66 38.8067 35.56 39.1933 35.52 39.66C35.48 40.14 35.5133 40.5667 35.62 40.94C35.74 41.3 35.9067 41.5933 36.12 41.82C36.3333 42.0467 36.5867 42.2067 36.88 42.3C37.1733 42.3933 37.4267 42.3867 37.64 42.28C37.4 42.4533 37.08 42.6333 36.68 42.82C36.28 43.0067 35.8067 43.1 35.26 43.1C34.6333 43.1 34.0667 42.9333 33.56 42.6C33.0533 42.2667 32.7267 41.82 32.58 41.26C32.42 40.6867 32.4733 40.1333 32.74 39.6C33.02 39.0533 33.44 38.6067 34 38.26C34.2933 38.0867 34.6467 37.92 35.06 37.76C35.4867 37.5867 35.9333 37.42 36.4 37.26C36.88 37.1 37.3533 36.94 37.82 36.78C38.2867 36.62 38.7067 36.4467 39.08 36.26C39.4667 36.0733 39.78 35.8733 40.02 35.66C40.2733 35.4467 40.4067 35.2067 40.42 34.94C40.4333 34.78 40.4 34.6133 40.32 34.44C40.2533 34.2533 40.1533 34.0867 40.02 33.94C40.38 34.2867 40.6 34.6867 40.68 35.14C40.6933 35.1933 40.7 35.2467 40.7 35.3C40.7 35.3533 40.7 35.4067 40.7 35.46V35.8V38.7V39.4V41.28V41.5ZM47.7341 41.9C47.7341 42.14 47.8141 42.3733 47.9741 42.6C48.1341 42.8267 48.3274 42.96 48.5541 43H43.9141C44.1407 42.96 44.3341 42.8267 44.4941 42.6C44.6541 42.3733 44.7341 42.14 44.7341 41.9V40.56V37.16V36.14V35V34.78C44.7341 34.5267 44.6541 34.2933 44.4941 34.08C44.3341 33.8533 44.1407 33.72 43.9141 33.68L47.3341 33.18H47.3941C47.6207 33.18 47.7341 33.2933 47.7341 33.52V36.06V37.16V40.56V41.9ZM52.9941 41.9C52.9941 42.14 53.0741 42.3733 53.2341 42.6C53.3941 42.8267 53.5874 42.96 53.8141 43H52.5741H49.1741C49.4007 42.96 49.5941 42.8267 49.7541 42.6C49.9141 42.3733 49.9941 42.14 49.9941 41.9V41.34V36C49.9941 35.7467 50.0474 35.5333 50.1541 35.36C50.2607 35.1867 50.3807 35.0333 50.5141 34.9C50.6474 34.7533 50.7674 34.6133 50.8741 34.48C50.9807 34.3333 51.0341 34.1667 51.0341 33.98C51.0341 33.7533 50.9074 33.56 50.6541 33.4C50.4007 33.2267 50.0741 33.14 49.6741 33.14C49.2474 33.14 48.8674 33.1933 48.5341 33.3C48.2007 33.4067 47.9674 33.4933 47.8341 33.56C48.3007 33.3333 48.8274 33.1667 49.4141 33.06C50.0141 32.94 50.5807 32.94 51.1141 33.06C51.6474 33.18 52.0941 33.4467 52.4541 33.86C52.8141 34.2733 52.9941 34.8933 52.9941 35.72V41.34V41.9ZM58.2541 41.9C58.2541 42.14 58.3341 42.3733 58.4941 42.6C58.6541 42.8267 58.8474 42.96 59.0741 43H57.8341H54.4341C54.6607 42.96 54.8541 42.8267 55.0141 42.6C55.1741 42.3733 55.2541 42.14 55.2541 41.9V41.34V36C55.2541 35.7467 55.3074 35.5333 55.4141 35.36C55.5207 35.1867 55.6407 35.0333 55.7741 34.9C55.9074 34.7533 56.0274 34.6133 56.1341 34.48C56.2407 34.3333 56.2941 34.1667 56.2941 33.98C56.2941 33.7533 56.1607 33.56 55.8941 33.4C55.6407 33.2267 55.3207 33.14 54.9341 33.14C54.5074 33.14 54.1274 33.1933 53.7941 33.3C53.4607 33.4067 53.2274 33.4933 53.0941 33.56C53.5607 33.3333 54.0874 33.1667 54.6741 33.06C55.2741 32.94 55.8407 32.94 56.3741 33.06C56.9074 33.18 57.3541 33.4467 57.7141 33.86C58.0741 34.2733 58.2541 34.8933 58.2541 35.72V41.34V41.9ZM67.9758 41.82C68.3624 41.82 68.7424 41.7267 69.1158 41.54C69.4891 41.34 69.8158 41.0667 70.0958 40.72C69.6958 41.44 69.1558 42.02 68.4758 42.46C67.7958 42.8867 67.0491 43.1 66.2358 43.1C65.6091 43.1 65.0158 42.9667 64.4558 42.7C63.9091 42.4333 63.4291 42.0733 63.0158 41.62C62.6024 41.1667 62.2758 40.6333 62.0358 40.02C61.7958 39.4067 61.6758 38.7467 61.6758 38.04C61.6758 37.3467 61.7958 36.6933 62.0358 36.08C62.2758 35.4533 62.6024 34.9133 63.0158 34.46C63.4291 34.0067 63.9091 33.6467 64.4558 33.38C65.0158 33.1133 65.6091 32.98 66.2358 32.98C66.1024 33.0067 65.9424 33.1333 65.7558 33.36C65.5824 33.5733 65.4158 33.86 65.2558 34.22C65.0958 34.58 64.9558 35 64.8358 35.48C64.7291 35.9467 64.6758 36.4467 64.6758 36.98C64.6758 37.6467 64.7624 38.2733 64.9358 38.86C65.1091 39.4467 65.3424 39.96 65.6358 40.4C65.9424 40.84 66.2958 41.1867 66.6958 41.44C67.0958 41.6933 67.5224 41.82 67.9758 41.82ZM67.7358 36.4C67.7358 36 67.7024 35.6133 67.6358 35.24C67.5691 34.8533 67.4824 34.5067 67.3758 34.2C67.2691 33.8933 67.1358 33.6333 66.9758 33.42C66.8291 33.2067 66.6691 33.06 66.4958 32.98C67.0024 33.02 67.4758 33.1467 67.9158 33.36C68.3558 33.5733 68.7491 33.8533 69.0958 34.2C69.4424 34.5467 69.7291 34.9533 69.9558 35.42C70.1958 35.8867 70.3691 36.3933 70.4758 36.94H68.1758H67.2958H67.1758C67.3224 36.94 67.4491 36.8867 67.5558 36.78C67.6758 36.6733 67.7358 36.5467 67.7358 36.4ZM79.4698 32.78C79.8965 32.8067 80.2632 32.9667 80.5698 33.26C80.8765 33.54 81.0298 33.8933 81.0298 34.32C81.0298 34.7467 80.8765 35.1133 80.5698 35.42C80.2632 35.7267 79.8965 35.88 79.4698 35.88C79.2565 35.88 79.0565 35.84 78.8698 35.76C78.6832 35.68 78.5165 35.5733 78.3698 35.44C78.2365 35.2933 78.1298 35.1267 78.0498 34.94C77.9698 34.74 77.9298 34.5333 77.9298 34.32C77.9298 34.24 77.9432 34.1333 77.9698 34C78.0365 33.7333 77.9832 33.5533 77.8098 33.46C77.6365 33.3533 77.3565 33.3933 76.9698 33.58C77.1432 33.4867 77.3365 33.3933 77.5498 33.3C77.7632 33.2067 77.9765 33.12 78.1898 33.04C78.4165 32.96 78.6365 32.8933 78.8498 32.84C79.0765 32.7867 79.2832 32.7667 79.4698 32.78ZM76.9098 41.9C76.9098 42.14 76.9898 42.3733 77.1498 42.6C77.3098 42.8267 77.5032 42.96 77.7298 43H73.0898C73.3165 42.96 73.5098 42.8267 73.6698 42.6C73.8298 42.3733 73.9098 42.14 73.9098 41.9V40.56V36.14V35V34.78C73.9098 34.5267 73.8298 34.2933 73.6698 34.08C73.5098 33.8533 73.3165 33.72 73.0898 33.68L76.5098 33.18H76.5698C76.7965 33.18 76.9098 33.2933 76.9098 33.52V36.06V40.56V41.9ZM88.1497 32.98C88.763 33.0067 89.3364 33.16 89.8697 33.44C90.403 33.7067 90.8697 34.0667 91.2697 34.52C91.6697 34.9733 91.983 35.5067 92.2097 36.12C92.4364 36.72 92.5497 37.36 92.5497 38.04C92.5497 38.72 92.4364 39.3667 92.2097 39.98C91.983 40.58 91.6697 41.1067 91.2697 41.56C90.8697 42.0133 90.403 42.38 89.8697 42.66C89.3364 42.9267 88.763 43.0733 88.1497 43.1C88.603 43.0067 88.943 42.5333 89.1697 41.68C89.4097 40.8133 89.5297 39.6 89.5297 38.04C89.5297 36.48 89.4097 35.2733 89.1697 34.42C88.943 33.5533 88.603 33.0733 88.1497 32.98ZM87.8097 32.98C87.3697 33.0733 87.0297 33.5533 86.7897 34.42C86.5497 35.2733 86.4297 36.48 86.4297 38.04C86.4297 39.6 86.5497 40.8133 86.7897 41.68C87.0297 42.5333 87.3697 43.0067 87.8097 43.1C87.1964 43.0733 86.623 42.9267 86.0897 42.66C85.5564 42.38 85.0897 42.0133 84.6897 41.56C84.303 41.1067 83.9964 40.58 83.7697 39.98C83.543 39.3667 83.4297 38.72 83.4297 38.04C83.4297 37.36 83.543 36.72 83.7697 36.12C83.9964 35.5067 84.303 34.9733 84.6897 34.52C85.0897 34.0667 85.5564 33.7067 86.0897 33.44C86.623 33.16 87.1964 33.0067 87.8097 32.98ZM98.9763 37.16V40.56V41.9C98.9763 42.14 99.0563 42.3733 99.2163 42.6C99.3763 42.8267 99.5696 42.96 99.7962 43H95.1563C95.3829 42.96 95.5763 42.8267 95.7363 42.6C95.8963 42.3733 95.9762 42.14 95.9762 41.9V40.56V37.16V36.14V35V34.78C95.9762 34.5267 95.8963 34.2933 95.7363 34.08C95.5763 33.8533 95.3829 33.72 95.1563 33.68L98.5763 33.18H98.6363C98.8629 33.18 98.9763 33.2933 98.9763 33.52V36.06V37.16ZM104.236 41.9C104.236 42.14 104.316 42.3733 104.476 42.6C104.636 42.8267 104.83 42.96 105.056 43H103.816H100.416C100.643 42.96 100.836 42.8267 100.996 42.6C101.156 42.3733 101.236 42.14 101.236 41.9V41.34V36C101.236 35.7467 101.29 35.5333 101.396 35.36C101.503 35.1867 101.623 35.0333 101.756 34.9C101.89 34.7533 102.01 34.6133 102.116 34.48C102.223 34.3333 102.276 34.1667 102.276 33.98C102.276 33.7533 102.15 33.56 101.896 33.4C101.643 33.2267 101.316 33.14 100.916 33.14C100.49 33.14 100.11 33.1933 99.7763 33.3C99.4429 33.4067 99.2096 33.4933 99.0763 33.56C99.5429 33.3333 100.07 33.1667 100.656 33.06C101.256 32.94 101.823 32.94 102.356 33.06C102.89 33.18 103.336 33.4467 103.696 33.86C104.056 34.2733 104.236 34.8933 104.236 35.72V41.34V41.9Z" fill="white"/>
<path d="M168.691 41.82C169.077 41.82 169.457 41.7267 169.831 41.54C170.204 41.34 170.531 41.0667 170.811 40.72C170.411 41.44 169.871 42.02 169.191 42.46C168.511 42.8867 167.764 43.1 166.951 43.1C166.324 43.1 165.731 42.9667 165.171 42.7C164.624 42.4333 164.144 42.0733 163.731 41.62C163.317 41.1667 162.991 40.6333 162.751 40.02C162.511 39.4067 162.391 38.7467 162.391 38.04C162.391 37.3467 162.511 36.6933 162.751 36.08C162.991 35.4533 163.317 34.9133 163.731 34.46C164.144 34.0067 164.624 33.6467 165.171 33.38C165.731 33.1133 166.324 32.98 166.951 32.98C166.817 33.0067 166.657 33.1333 166.471 33.36C166.297 33.5733 166.131 33.86 165.971 34.22C165.811 34.58 165.671 35 165.551 35.48C165.444 35.9467 165.391 36.4467 165.391 36.98C165.391 37.6467 165.477 38.2733 165.651 38.86C165.824 39.4467 166.057 39.96 166.351 40.4C166.657 40.84 167.011 41.1867 167.411 41.44C167.811 41.6933 168.237 41.82 168.691 41.82ZM168.451 36.4C168.451 36 168.417 35.6133 168.351 35.24C168.284 34.8533 168.197 34.5067 168.091 34.2C167.984 33.8933 167.851 33.6333 167.691 33.42C167.544 33.2067 167.384 33.06 167.211 32.98C167.717 33.02 168.191 33.1467 168.631 33.36C169.071 33.5733 169.464 33.8533 169.811 34.2C170.157 34.5467 170.444 34.9533 170.671 35.42C170.911 35.8867 171.084 36.3933 171.191 36.94H168.891H168.011H167.891C168.037 36.94 168.164 36.8867 168.271 36.78C168.391 36.6733 168.451 36.5467 168.451 36.4ZM177.625 41.9C177.625 42.14 177.705 42.3733 177.865 42.6C178.025 42.8267 178.218 42.96 178.445 43H177.205H173.805C174.031 42.96 174.225 42.8267 174.385 42.6C174.545 42.3733 174.625 42.14 174.625 41.9V41.34V36.14V35V34.78C174.625 34.5267 174.545 34.2933 174.385 34.08C174.225 33.8533 174.031 33.72 173.805 33.68L177.225 33.18H177.285C177.511 33.18 177.625 33.2933 177.625 33.52V36.06V41.34V41.9ZM176.125 32.1C175.698 32.1 175.331 31.9533 175.025 31.66C174.731 31.3533 174.585 30.9867 174.585 30.56C174.585 30.1333 174.731 29.7667 175.025 29.46C175.331 29.1533 175.698 29 176.125 29C176.551 29 176.918 29.1533 177.225 29.46C177.531 29.7667 177.685 30.1333 177.685 30.56C177.685 30.7733 177.645 30.9733 177.565 31.16C177.485 31.3467 177.371 31.5133 177.225 31.66C177.091 31.7933 176.925 31.9 176.725 31.98C176.538 32.06 176.338 32.1 176.125 32.1ZM180.681 46.94C180.681 47.18 180.781 47.3667 180.981 47.5C181.195 47.6467 181.421 47.7467 181.661 47.8C181.221 47.7333 180.801 47.6 180.401 47.4C180.015 47.2133 179.675 46.9867 179.381 46.72C179.101 46.4667 178.875 46.1867 178.701 45.88C178.528 45.5867 178.441 45.3 178.441 45.02C178.441 44.5933 178.588 44.2267 178.881 43.92C179.188 43.6267 179.555 43.48 179.981 43.48C180.195 43.48 180.395 43.52 180.581 43.6C180.781 43.68 180.948 43.7867 181.081 43.92C181.228 44.0667 181.341 44.2333 181.421 44.42C181.501 44.6067 181.541 44.8067 181.541 45.02C181.541 45.26 181.495 45.46 181.401 45.62C181.321 45.78 181.228 45.9267 181.121 46.06C181.015 46.1933 180.915 46.3267 180.821 46.46C180.741 46.5933 180.695 46.7533 180.681 46.94ZM185.461 33.18C185.568 33.18 185.655 33.2133 185.721 33.28C185.788 33.3333 185.821 33.4133 185.821 33.52V45.02C185.821 45.3 185.748 45.5867 185.601 45.88C185.455 46.1733 185.248 46.4467 184.981 46.7C184.728 46.9533 184.428 47.1733 184.081 47.36C183.735 47.56 183.368 47.7 182.981 47.78C183.208 47.7267 183.421 47.6267 183.621 47.48C183.821 47.3467 183.921 47.1667 183.921 46.94C183.921 46.74 183.868 46.5667 183.761 46.42C183.655 46.2733 183.528 46.1267 183.381 45.98C183.248 45.8467 183.121 45.7 183.001 45.54C182.881 45.3933 182.815 45.22 182.801 45.02V34.78C182.801 34.5267 182.721 34.2933 182.561 34.08C182.415 33.8533 182.221 33.72 181.981 33.68L185.421 33.18H185.461ZM184.321 32.1C184.108 32.1 183.901 32.06 183.701 31.98C183.515 31.9 183.348 31.7933 183.201 31.66C183.068 31.5133 182.961 31.3467 182.881 31.16C182.801 30.9733 182.761 30.7733 182.761 30.56C182.761 30.1333 182.915 29.7667 183.221 29.46C183.528 29.1533 183.895 29 184.321 29C184.535 29 184.735 29.04 184.921 29.12C185.108 29.2 185.268 29.3133 185.401 29.46C185.548 29.5933 185.661 29.76 185.741 29.96C185.821 30.1467 185.861 30.3467 185.861 30.56C185.861 30.9867 185.708 31.3533 185.401 31.66C185.108 31.9533 184.748 32.1 184.321 32.1ZM192.679 41.9C192.679 42.14 192.759 42.3733 192.919 42.6C193.079 42.8267 193.273 42.96 193.499 43H188.859C189.086 42.96 189.279 42.8267 189.439 42.6C189.599 42.3733 189.679 42.14 189.679 41.9V40.56V37.16V36.14V35V34.78C189.679 34.5267 189.599 34.2933 189.439 34.08C189.279 33.8533 189.086 33.72 188.859 33.68L192.279 33.18H192.339C192.566 33.18 192.679 33.2933 192.679 33.52V36.06V37.16V40.56V41.9ZM197.939 41.9C197.939 42.14 198.019 42.3733 198.179 42.6C198.339 42.8267 198.533 42.96 198.759 43H197.519H194.119C194.346 42.96 194.539 42.8267 194.699 42.6C194.859 42.3733 194.939 42.14 194.939 41.9V41.34V36C194.939 35.7467 194.993 35.5333 195.099 35.36C195.206 35.1867 195.326 35.0333 195.459 34.9C195.593 34.7533 195.713 34.6133 195.819 34.48C195.926 34.3333 195.979 34.1667 195.979 33.98C195.979 33.7533 195.853 33.56 195.599 33.4C195.346 33.2267 195.019 33.14 194.619 33.14C194.193 33.14 193.813 33.1933 193.479 33.3C193.146 33.4067 192.913 33.4933 192.779 33.56C193.246 33.3333 193.773 33.1667 194.359 33.06C194.959 32.94 195.526 32.94 196.059 33.06C196.593 33.18 197.039 33.4467 197.399 33.86C197.759 34.2733 197.939 34.8933 197.939 35.72V41.34V41.9ZM203.199 41.9C203.199 42.14 203.279 42.3733 203.439 42.6C203.599 42.8267 203.793 42.96 204.019 43H202.779H199.379C199.606 42.96 199.799 42.8267 199.959 42.6C200.119 42.3733 200.199 42.14 200.199 41.9V41.34V36C200.199 35.7467 200.253 35.5333 200.359 35.36C200.466 35.1867 200.586 35.0333 200.719 34.9C200.853 34.7533 200.973 34.6133 201.079 34.48C201.186 34.3333 201.239 34.1667 201.239 33.98C201.239 33.7533 201.106 33.56 200.839 33.4C200.586 33.2267 200.266 33.14 199.879 33.14C199.453 33.14 199.073 33.1933 198.739 33.3C198.406 33.4067 198.173 33.4933 198.039 33.56C198.506 33.3333 199.033 33.1667 199.619 33.06C200.219 32.94 200.786 32.94 201.319 33.06C201.853 33.18 202.299 33.4467 202.659 33.86C203.019 34.2733 203.199 34.8933 203.199 35.72V41.34V41.9ZM212.921 41.82C213.308 41.82 213.688 41.7267 214.061 41.54C214.434 41.34 214.761 41.0667 215.041 40.72C214.641 41.44 214.101 42.02 213.421 42.46C212.741 42.8867 211.994 43.1 211.181 43.1C210.554 43.1 209.961 42.9667 209.401 42.7C208.854 42.4333 208.374 42.0733 207.961 41.62C207.548 41.1667 207.221 40.6333 206.981 40.02C206.741 39.4067 206.621 38.7467 206.621 38.04C206.621 37.3467 206.741 36.6933 206.981 36.08C207.221 35.4533 207.548 34.9133 207.961 34.46C208.374 34.0067 208.854 33.6467 209.401 33.38C209.961 33.1133 210.554 32.98 211.181 32.98C211.048 33.0067 210.888 33.1333 210.701 33.36C210.528 33.5733 210.361 33.86 210.201 34.22C210.041 34.58 209.901 35 209.781 35.48C209.674 35.9467 209.621 36.4467 209.621 36.98C209.621 37.6467 209.708 38.2733 209.881 38.86C210.054 39.4467 210.288 39.96 210.581 40.4C210.888 40.84 211.241 41.1867 211.641 41.44C212.041 41.6933 212.468 41.82 212.921 41.82ZM212.681 36.4C212.681 36 212.648 35.6133 212.581 35.24C212.514 34.8533 212.428 34.5067 212.321 34.2C212.214 33.8933 212.081 33.6333 211.921 33.42C211.774 33.2067 211.614 33.06 211.441 32.98C211.948 33.02 212.421 33.1467 212.861 33.36C213.301 33.5733 213.694 33.8533 214.041 34.2C214.388 34.5467 214.674 34.9533 214.901 35.42C215.141 35.8867 215.314 36.3933 215.421 36.94H213.121H212.241H212.121C212.268 36.94 212.394 36.8867 212.501 36.78C212.621 36.6733 212.681 36.5467 212.681 36.4ZM224.415 32.78C224.842 32.8067 225.208 32.9667 225.515 33.26C225.822 33.54 225.975 33.8933 225.975 34.32C225.975 34.7467 225.822 35.1133 225.515 35.42C225.208 35.7267 224.842 35.88 224.415 35.88C224.202 35.88 224.002 35.84 223.815 35.76C223.628 35.68 223.462 35.5733 223.315 35.44C223.182 35.2933 223.075 35.1267 222.995 34.94C222.915 34.74 222.875 34.5333 222.875 34.32C222.875 34.24 222.888 34.1333 222.915 34C222.982 33.7333 222.928 33.5533 222.755 33.46C222.582 33.3533 222.302 33.3933 221.915 33.58C222.088 33.4867 222.282 33.3933 222.495 33.3C222.708 33.2067 222.922 33.12 223.135 33.04C223.362 32.96 223.582 32.8933 223.795 32.84C224.022 32.7867 224.228 32.7667 224.415 32.78ZM221.855 41.9C221.855 42.14 221.935 42.3733 222.095 42.6C222.255 42.8267 222.448 42.96 222.675 43H218.035C218.262 42.96 218.455 42.8267 218.615 42.6C218.775 42.3733 218.855 42.14 218.855 41.9V40.56V36.14V35V34.78C218.855 34.5267 218.775 34.2933 218.615 34.08C218.455 33.8533 218.262 33.72 218.035 33.68L221.455 33.18H221.515C221.742 33.18 221.855 33.2933 221.855 33.52V36.06V40.56V41.9Z" fill="white"/>
<path d="M186.803 17.6C186.803 20.6933 186.563 23.68 186.083 26.56C186.349 24.7467 186.216 23.2533 185.683 22.08C185.203 20.9067 184.189 20.32 182.643 20.32C181.736 20.32 180.936 20.4533 180.243 20.72C179.603 20.9867 178.776 21.12 177.763 21.12C176.589 21.12 175.469 20.9067 174.403 20.48C173.389 20 172.483 19.3867 171.683 18.64C170.936 17.84 170.323 16.9333 169.843 15.92C169.416 14.8533 169.203 13.7333 169.203 12.56C169.203 11.3867 169.416 10.2933 169.843 9.28C170.323 8.21333 170.936 7.30666 171.683 6.56C172.483 5.76 173.389 5.14666 174.403 4.72C175.469 4.24 176.589 4 177.763 4C179.469 4 180.989 4.45333 182.323 5.36C183.709 6.26667 184.749 7.44 185.443 8.88C186.083 10.16 186.456 11.6 186.563 13.2C186.723 14.8 186.803 16.2667 186.803 17.6ZM129.683 54.48C129.683 55.1733 129.896 55.8667 130.323 56.56C130.803 57.2533 131.416 57.8667 132.163 58.4C132.909 58.9333 133.763 59.3333 134.723 59.6C135.683 59.8133 136.669 59.8133 137.683 59.6C136.456 59.8667 135.309 60 134.243 60C130.403 60 127.283 58.6933 124.883 56.08C122.536 53.4667 121.363 49.5733 121.363 44.4V41.6V9.28C121.363 7.94666 120.883 6.74666 119.923 5.68C119.016 4.56 117.896 4 116.563 4H121.363H123.683H130.643H134.003C134.429 4 134.776 4.16 135.043 4.48C135.309 4.74667 135.443 5.09333 135.443 5.52V8.8V17.92V26.72V36.64V43.36C135.443 44.8 135.123 46 134.483 46.96C133.896 47.8667 133.229 48.72 132.483 49.52C131.789 50.2667 131.149 51.04 130.563 51.84C129.976 52.5867 129.683 53.4667 129.683 54.48ZM153.603 54.48C153.603 55.1733 153.816 55.8667 154.243 56.56C154.723 57.2533 155.309 57.8667 156.003 58.4C156.749 58.9333 157.603 59.3333 158.563 59.6C159.523 59.8133 160.536 59.8133 161.602 59.6C161.016 59.7067 160.429 59.8133 159.843 59.92C159.256 59.9733 158.669 60 158.083 60C154.296 60 151.203 58.6933 148.803 56.08C146.456 53.4667 145.283 49.5733 145.283 44.4V41.6V9.28C145.283 7.94666 144.803 6.74666 143.843 5.68C142.936 4.56 141.789 4 140.403 4H145.283H154.562H157.843C158.856 4 159.363 4.50666 159.363 5.52V8.8V17.92V26.72V36.64V43.36C159.363 44.8 159.043 46 158.403 46.96C157.816 47.8667 157.149 48.72 156.403 49.52C155.709 50.2667 155.069 51.04 154.483 51.84C153.896 52.5867 153.603 53.4667 153.603 54.48Z" fill="white"/>
<path d="M36.16 9.04C36.16 8.24 35.92 7.54666 35.44 6.96C35.0133 6.37333 34.4533 5.89333 33.76 5.52C33.0667 5.09333 32.2933 4.77333 31.44 4.56C30.64 4.34666 29.8667 4.18666 29.12 4.08C31.04 4.24 32.9067 4.64 34.72 5.28C36.5333 5.86666 38.2133 6.64 39.76 7.6C41.3067 8.50667 42.6667 9.54666 43.84 10.72C45.0667 11.8933 46.08 13.0933 46.88 14.32C47.4133 15.2267 47.8133 16.1333 48.08 17.04C48.4 17.8933 48.56 18.7467 48.56 19.6C48.56 20.7733 48.32 21.8933 47.84 22.96C47.4133 23.9733 46.8 24.88 46 25.68C45.2533 26.4267 44.3467 27.04 43.28 27.52C42.2667 27.9467 41.1733 28.16 40 28.16C38.8267 28.16 37.7067 27.9467 36.64 27.52C35.6267 27.04 34.72 26.4267 33.92 25.68C33.1733 24.88 32.56 23.9733 32.08 22.96C31.6533 21.8933 31.44 20.7733 31.44 19.6C31.44 18.2667 31.68 17.1733 32.16 16.32C32.64 15.4133 33.1467 14.6133 33.68 13.92C34.2667 13.1733 34.8 12.4533 35.28 11.76C35.8133 11.0133 36.1067 10.1067 36.16 9.04ZM36.24 52.64C38.48 52.64 40.6933 52.16 42.88 51.2C45.0667 50.1867 46.96 48.7467 48.56 46.88C46.32 50.88 43.3333 54.08 39.6 56.48C35.8667 58.8267 31.7333 60 27.2 60C23.7333 60 20.4533 59.28 17.36 57.84C14.32 56.3467 11.6533 54.3467 9.36 51.84C7.06667 49.28 5.25333 46.2933 3.92 42.88C2.64 39.4667 2 35.84 2 32C2 28.16 2.64 24.5333 3.92 21.12C5.25333 17.7067 7.06667 14.7467 9.36 12.24C11.6533 9.68 14.32 7.68 17.36 6.24C20.4533 4.74666 23.7333 4 27.2 4C26.0267 4 24.8533 4.61333 23.68 5.84C22.56 7.01333 21.52 8.61333 20.56 10.64C19.6533 12.6133 18.9067 14.96 18.32 17.68C17.7867 20.3467 17.52 23.1467 17.52 26.08C17.52 29.76 18 33.2267 18.96 36.48C19.9733 39.68 21.3067 42.48 22.96 44.88C24.6667 47.28 26.6667 49.1733 28.96 50.56C31.2533 51.9467 33.68 52.64 36.24 52.64Z" fill="white"/>
</svg>
